<?xml version="1.0" encoding="UTF-8" standalone="no"?>
<svg
   xmlns:dc="http://purl.org/dc/elements/1.1/"
   xmlns:cc="http://creativecommons.org/ns#"
   xmlns:rdf="http://www.w3.org/1999/02/22-rdf-syntax-ns#"
   xmlns:svg="http://www.w3.org/2000/svg"
   xmlns="http://www.w3.org/2000/svg"
   xmlns:sodipodi="http://sodipodi.sourceforge.net/DTD/sodipodi-0.dtd"
   xmlns:inkscape="http://www.inkscape.org/namespaces/inkscape"
   width="512"
   height="512"
   viewBox="0 0 512 512"
   version="1.1"
   id="svg12"
   sodipodi:docname="log.svg"
   inkscape:version="0.92.4 (5da689c313, 2019-01-14)">
  <metadata
     id="metadata18">
    <rdf:RDF>
      <cc:Work
         rdf:about="">
        <dc:format>image/svg+xml</dc:format>
        <dc:type
           rdf:resource="http://purl.org/dc/dcmitype/StillImage" />
      </cc:Work>
    </rdf:RDF>
  </metadata>
  <defs
     id="defs16" />
  <sodipodi:namedview
     pagecolor="#ffffff"
     bordercolor="#666666"
     borderopacity="1"
     objecttolerance="10"
     gridtolerance="10"
     guidetolerance="10"
     inkscape:pageopacity="0"
     inkscape:pageshadow="2"
     inkscape:window-width="1363"
     inkscape:window-height="1024"
     id="namedview14"
     showgrid="false"
     inkscape:zoom="0.4609375"
     inkscape:cx="256"
     inkscape:cy="256"
     inkscape:window-x="0"
     inkscape:window-y="34"
     inkscape:window-maximized="0"
     inkscape:current-layer="svg12" />
  <title
     id="title2">ionicons-v5-l</title>
  <polyline
     points="160 336 160 48 192 64 224 48 255.94 64 288.31 48 320 64 351.79 48 383.72 64 416 48 448.01 64 480 48 480 272"
     style="fill:none;stroke:#a0aec0;stroke-linejoin:round;stroke-width:32px;stroke-opacity:1"
     id="polyline4" />
  <path
     d="M480,272V384a80,80,0,0,1-80,80h0a80,80,0,0,1-80-80V336H48a15.86,15.86,0,0,0-16,16c0,64,6.74,112,80,112H400"
     style="fill:none;stroke:#a0aec0;stroke-linejoin:round;stroke-width:32px;stroke-opacity:1"
     id="path6" />
  <line
     x1="224"
     y1="144"
     x2="416"
     y2="144"
     style="fill:none;stroke:#a0aec0;stroke-linecap:round;stroke-linejoin:round;stroke-width:32px;stroke-opacity:1"
     id="line8" />
  <line
     x1="288"
     y1="224"
     x2="416"
     y2="224"
     style="fill:none;stroke:#a0aec0;stroke-linecap:round;stroke-linejoin:round;stroke-width:32px;stroke-opacity:1"
     id="line10" />
</svg>
