<?xml version="1.0" encoding="UTF-8" standalone="no"?>
<svg
   xmlns:dc="http://purl.org/dc/elements/1.1/"
   xmlns:cc="http://creativecommons.org/ns#"
   xmlns:rdf="http://www.w3.org/1999/02/22-rdf-syntax-ns#"
   xmlns:svg="http://www.w3.org/2000/svg"
   xmlns="http://www.w3.org/2000/svg"
   xmlns:sodipodi="http://sodipodi.sourceforge.net/DTD/sodipodi-0.dtd"
   xmlns:inkscape="http://www.inkscape.org/namespaces/inkscape"
   width="512"
   height="512"
   viewBox="0 0 512 512"
   version="1.1"
   id="svg8"
   sodipodi:docname="log.svg"
   inkscape:version="0.92.4 (5da689c313, 2019-01-14)">
  <metadata
     id="metadata14">
    <rdf:RDF>
      <cc:Work
         rdf:about="">
        <dc:format>image/svg+xml</dc:format>
        <dc:type
           rdf:resource="http://purl.org/dc/dcmitype/StillImage" />
      </cc:Work>
    </rdf:RDF>
  </metadata>
  <defs
     id="defs12" />
  <sodipodi:namedview
     pagecolor="#ffffff"
     bordercolor="#666666"
     borderopacity="1"
     objecttolerance="10"
     gridtolerance="10"
     guidetolerance="10"
     inkscape:pageopacity="0"
     inkscape:pageshadow="2"
     inkscape:window-width="1514"
     inkscape:window-height="1187"
     id="namedview10"
     showgrid="false"
     inkscape:zoom="0.4609375"
     inkscape:cx="256"
     inkscape:cy="256"
     inkscape:window-x="0"
     inkscape:window-y="34"
     inkscape:window-maximized="0"
     inkscape:current-layer="svg8" />
  <title
     id="title2">ionicons-v5-h</title>
  <path
     d="M256,160c16-63.16,76.43-95.41,208-96a15.94,15.94,0,0,1,16,16V368a16,16,0,0,1-16,16c-128,0-177.45,25.81-208,64-30.37-38-80-64-208-64-9.88,0-16-8.05-16-17.93V80A15.94,15.94,0,0,1,48,64C179.57,64.59,240,96.84,256,160Z"
     style="fill:none;stroke:#a0aec0;stroke-linecap:round;stroke-linejoin:round;stroke-width:32px;stroke-opacity:1"
     id="path4" />
  <line
     x1="256"
     y1="160"
     x2="256"
     y2="448"
     style="fill:none;stroke:#a0aec0;stroke-linecap:round;stroke-linejoin:round;stroke-width:32px;stroke-opacity:1"
     id="line6" />
</svg>
